<?xml version="1.0" encoding="UTF-8"?>
<svg version="1.1" xmlns="http://www.w3.org/2000/svg" width="701" height="549">
<path d="M0 0 C231.33 0 462.66 0 701 0 C701 181.17 701 362.34 701 549 C469.67 549 238.34 549 0 549 C0 367.83 0 186.66 0 0 Z M264.15185547 20.1652832 C263.47173401 20.50183929 262.79161255 20.83839539 262.09088135 21.18515015 C259.84555993 22.29901374 257.60628821 23.42447117 255.3671875 24.55078125 C253.80851225 25.32877171 252.24959975 26.10628699 250.69046021 26.88334656 C247.42463683 28.51330977 244.16177739 30.14902572 240.90087891 31.78881836 C236.71857918 33.89136635 232.5292574 35.97946012 228.33761406 38.06330585 C225.11772053 39.66602981 221.9016727 41.27634775 218.68674088 42.88899803 C217.14332688 43.66204016 215.59871866 44.43270269 214.05291367 45.20095253 C211.89442951 46.27512208 209.74133213 47.35939839 207.58935547 48.4465332 C206.9482785 48.76302322 206.30720154 49.07951324 205.646698 49.40559387 C202.47334578 51.02281235 201.02404589 51.96393117 199 55 C207.42573583 59.26516559 215.88263413 63.43692215 224.4375 67.4375 C231.25736098 70.63321382 237.92558737 74.03534973 244.55493164 77.60717773 C250.08697366 80.56656997 255.70396872 83.31734815 261.375 86 C262.19033203 86.38607422 263.00566406 86.77214844 263.84570312 87.16992188 C266.88415892 88.59508392 269.81203658 89.93734553 273 91 C271.60601199 95.18196402 268.7115315 96.09217172 265 98 C263.90583267 98.56692566 262.81166534 99.13385132 261.68434143 99.71795654 C260.54013229 100.28895081 259.39592316 100.85994507 258.21704102 101.44824219 C257.57847672 101.76759735 256.93991241 102.08695251 256.28199768 102.41598511 C254.19024405 103.46151642 252.09709001 104.50421023 250.00390625 105.546875 C248.52757601 106.28410488 247.05133559 107.02151463 245.57518005 107.75909424 C241.69425286 109.69765584 237.81213373 111.63381839 233.92974854 113.56945801 C230.03123454 115.51363894 226.13381868 117.46001842 222.23632812 119.40625 C216.47399807 122.28344935 210.71103773 125.15938079 204.94750977 128.03417969 C198.94761912 131.02698034 192.95003348 134.02436626 186.95336914 137.02362537 C181.77027039 139.61565742 176.58514786 142.2036135 171.39923668 144.79001331 C165.83342308 147.56588702 160.26853837 150.34361827 154.70401859 153.12208462 C150.98329156 154.97981009 147.26218079 156.83675933 143.5402832 158.69213867 C139.89648993 160.50862495 136.2536619 162.32703313 132.61150932 164.14680672 C131.23110131 164.83608695 129.85034144 165.524663 128.46922493 166.21252251 C126.55676414 167.16515061 124.6455476 168.12023045 122.73461914 169.07592773 C121.6481459 169.61805405 120.56167267 170.16018036 119.442276 170.71873474 C117.11630593 171.78447121 117.11630593 171.78447121 116 173 C115.903292 174.98694851 115.87812948 176.97739013 115.87974548 178.96669006 C115.87837082 180.26384445 115.87699615 181.56099884 115.87557983 182.89746094 C115.87911945 184.3483889 115.88275427 185.79931663 115.88647461 187.25024414 C115.88675647 188.76761371 115.88659877 190.28498342 115.8860321 191.80235291 C115.88574409 195.93440516 115.89164142 200.06642863 115.89860606 204.19847417 C115.90483898 208.51198892 115.90544335 212.82550427 115.90663147 217.13902283 C115.90974497 225.31300117 115.91795861 233.48696621 115.92798096 241.66093868 C115.93914152 250.96428969 115.9446524 260.26764132 115.94967639 269.57099736 C115.96014121 288.71400579 115.97774101 307.85700183 116 327 C110.08484393 324.70562823 104.33918279 322.28978587 98.68603516 319.40893555 C98.02775726 319.07512375 97.36947937 318.74131195 96.69125366 318.39738464 C95.28382647 317.68328937 93.87730392 316.96740864 92.47163773 316.24985313 C90.24596105 315.11473659 88.01699287 313.98634338 85.78695679 312.8598175 C79.45460712 309.660265 73.12588453 306.453696 66.80517578 303.23120117 C62.92141502 301.25173022 59.03193133 299.28393358 55.13850021 297.3235569 C53.66026801 296.57638702 52.18426999 295.82477979 50.71059036 295.06867027 C48.65829422 294.0161162 46.59906361 292.97854253 44.53759766 291.9440918 C43.36862946 291.34992966 42.19966125 290.75576752 40.99526978 290.14360046 C37.99211804 288.99699065 36.89961507 288.75370544 34 290 C33.97429567 297.34252154 33.95698732 304.68503117 33.94506836 312.02758789 C33.9400908 314.51685011 33.93330634 317.00610949 33.92456055 319.49536133 C33.86124397 337.35333032 33.86124397 337.35333032 34.44140625 355.19921875 C34.48039536 355.98859329 34.51938446 356.77796783 34.55955505 357.59126282 C34.47675821 361.09310359 34.47675821 361.09310359 36 364 C35.34 364.33 34.68 364.66 34 365 C34.69348207 368.16446408 34.69348207 368.16446408 37.36303711 369.41943359 C38.4072583 369.90750488 39.45147949 370.39557617 40.52734375 370.8984375 C41.69982666 371.45402344 42.87230957 372.00960938 44.08032227 372.58203125 C44.70883087 372.87416504 45.33733948 373.16629883 45.9848938 373.46728516 C48.62241789 374.69340017 51.24936901 375.94138085 53.87687683 377.18878174 C55.23266296 377.83238744 56.58896251 378.47491261 57.945755 379.11639404 C64.70006084 382.31470153 71.3857427 385.64267426 78.0625 389 C79.08786865 389.51481934 80.1132373 390.02963867 81.16967773 390.56005859 C83.14225801 391.55109941 85.11451473 392.54278453 87.08642578 393.53515625 C90.92886078 395.46699888 94.77560941 397.39015486 98.62280273 399.3125 C103.74905555 401.87395879 108.87441405 404.43720703 114 407 C114.33 433.4 114.66 459.8 115 487 C119.455 488.485 119.455 488.485 124 490 C126.6769871 491.32518845 129.27198218 492.67268334 131.875 494.125 C137.99684237 497.45672654 144.1798336 500.56229422 150.5 503.5 C156.73566862 506.40659031 162.87094518 509.44210529 168.9375 512.6875 C169.63375488 513.0599585 170.33000977 513.43241699 171.04736328 513.81616211 C172.39250038 514.53646236 173.73755527 515.25691614 175.08251953 515.97753906 C178.00002754 517.53324616 180.93115996 519.05700678 183.875 520.5625 C184.80054688 521.03816406 185.72609375 521.51382812 186.6796875 522.00390625 C189.03860495 523.19723967 189.03860495 523.19723967 192 523 C192 497.26 192 471.52 192 445 C214.8125 456.4375 214.8125 456.4375 221.88208008 459.98608398 C232.12819947 465.12022325 242.38670906 470.21072036 252.77900696 475.04380798 C257.77342436 477.37507767 262.64961655 479.88300281 267.5 482.5 C274.13972175 486.06819657 280.86400418 489.38473004 287.703125 492.5546875 C297.87738247 497.28562589 307.88422573 502.3649654 317.8349762 507.54704285 C320.93402397 509.15828204 324.04072742 510.75442161 327.1484375 512.34887695 C328.73403802 513.167193 330.31601841 513.99255701 331.89453125 514.82446289 C334.22247015 516.04915497 336.56245839 517.24739534 338.90625 518.44140625 C339.6022229 518.81519913 340.2981958 519.188992 341.01525879 519.57411194 C346.16154883 522.15016425 349.36871572 522.25454689 355 521 C357.13332995 520.28400116 357.13332995 520.28400116 358.83203125 519.25 C359.47527344 518.89357422 360.11851562 518.53714844 360.78125 518.16992188 C361.4515625 517.78384766 362.121875 517.39777344 362.8125 517 C364.30654344 516.17336673 365.80272111 515.35058153 367.30078125 514.53125 C368.07115723 514.10972656 368.8415332 513.68820312 369.63525391 513.25390625 C373.523026 511.1924157 377.50826386 509.34973947 381.5 507.5 C387.51090599 504.69980189 393.41582091 501.7767979 399.25 498.625 C406.8706081 494.51045114 414.65329614 490.79004377 422.48242188 487.09082031 C429.01818288 483.98796235 435.42474578 480.71163159 441.7890625 477.2734375 C446.94833165 474.50601344 452.19421358 471.97346661 457.5 469.5 C463.65083175 466.63127452 469.7045876 463.64226243 475.6875 460.4375 C481.25193896 457.46227357 486.81827716 454.49585726 492.4375 451.625 C493.35825317 451.14244751 493.35825317 451.14244751 494.29760742 450.65014648 C499.53428554 447.99780302 504.13954298 446.7581371 510 445 C510 469.75 510 494.5 510 520 C514.02874978 518.99281255 517.38959405 517.43877569 521.06347656 515.58178711 C521.76631775 515.23051254 522.46915894 514.87923798 523.19329834 514.51731873 C525.51099083 513.35777701 527.82579967 512.19259727 530.140625 511.02734375 C531.74899107 510.22129524 533.35753438 509.41560029 534.96624756 508.61024475 C539.19631751 506.49139482 543.42396278 504.36775059 547.65112305 502.24310303 C552.72543903 499.69390873 557.80274293 497.15067186 562.87954712 494.60643768 C570.58866494 490.74218723 578.29394557 486.87038319 586 483 C586 457.26 586 431.52 586 405 C587.98 404.34 589.96 403.68 592 403 C593.99171119 402.07100279 595.96539655 401.10263259 597.921875 400.1015625 C599.03046875 399.53953125 600.1390625 398.9775 601.28125 398.3984375 C603.57819632 397.22409783 605.8750723 396.04962056 608.171875 394.875 C609.285625 394.31039063 610.399375 393.74578125 611.546875 393.1640625 C613.04492676 392.39763428 613.04492676 392.39763428 614.57324219 391.61572266 C617.30685283 390.32682018 620.01228241 389.18596691 622.82275391 388.08642578 C627.78652918 386.12955732 632.53184525 383.8633687 637.2890625 381.453125 C638.02600342 381.08364746 638.76294434 380.71416992 639.5222168 380.33349609 C642.22537227 378.9767602 644.9249926 377.61299003 647.625 376.25 C656.720625 371.67125 656.720625 371.67125 666 367 C665.67 342.25 665.34 317.5 665 292 C658.81001618 294.06332794 653.69298704 296.01842106 648.125 299.125 C642.00316985 302.4567199 635.82023929 305.56246943 629.5 308.5 C622.74012119 311.64889689 616.1062153 314.95853751 609.57226562 318.5546875 C601.86311101 322.74497301 593.99192158 326.23909573 586 330 C586 277.86 586 225.72 586 172 C582.7 170.68 579.4 169.36 576 168 C573.32067147 166.64084498 570.68923366 165.26316159 568.0625 163.8125 C561.95966933 160.50862944 555.79181274 157.42736488 549.5 154.5 C543.32059531 151.62155131 537.2522954 148.60679369 531.25 145.375 C524.75619082 141.87856513 518.17304642 138.68368899 511.47265625 135.60546875 C504.21540852 132.25031823 497.11914134 128.60759081 490.07373047 124.83154297 C483.294496 121.20097237 476.47027343 117.75019166 469.5 114.5 C462.58828232 111.27673353 455.81859318 107.86141665 449.09985352 104.25415039 C442.46822815 100.69504404 435.7507533 97.3272334 429 94 C429.27148438 92.12768555 429.27148438 92.12768555 430 90 C431.58789062 88.86254883 431.58789062 88.86254883 433.65625 87.95703125 C434.42259766 87.61027344 435.18894531 87.26351562 435.97851562 86.90625 C436.81060547 86.5453125 437.64269531 86.184375 438.5 85.8125 C440.25152874 85.02029842 442.00150314 84.22465233 443.75 83.42578125 C444.63429688 83.02311035 445.51859375 82.62043945 446.4296875 82.20556641 C450.195157 80.43942959 453.84631998 78.48473118 457.5 76.5 C464.18671628 72.89083548 470.98558333 69.6031969 477.87231445 66.39477539 C486.06895209 62.55061916 494.04111241 58.3106395 502 54 C499.88909656 51.68938332 497.99333941 50.34174813 495.1484375 49.0546875 C494.00858398 48.5297168 494.00858398 48.5297168 492.84570312 47.99414062 C492.03037109 47.62482422 491.21503906 47.25550781 490.375 46.875 C483.98237586 43.9189574 477.69464308 40.85132105 471.5 37.5 C464.71852214 33.8402055 457.82591256 30.4930757 450.83325195 27.25634766 C444.94220077 24.51096793 439.33625392 21.46637419 433.76171875 18.1171875 C430.25859754 16.70008331 428.66261457 17.12719953 425 18 C422.60398925 19.04409722 420.33020341 20.12114915 418.02001953 21.32641602 C417.0138559 21.83869751 417.0138559 21.83869751 415.98736572 22.36132812 C414.53861626 23.09995319 413.09169064 23.84216437 411.64642715 24.58758736 C409.3545942 25.76844562 407.05715895 26.9376509 404.75778198 28.10374451 C398.22367121 31.41956509 391.69877233 34.75320382 385.18115234 38.10131836 C381.18701392 40.15210114 377.18512387 42.18703364 373.17812729 44.21256828 C371.65768245 44.98516495 370.14029576 45.76381207 368.62616348 46.54870796 C366.50424035 47.64832377 364.37302087 48.72753311 362.23876953 49.80297852 C361.3142247 50.29153572 361.3142247 50.29153572 360.3710022 50.78996277 C355.13050242 53.38709648 350.2879182 53.94301496 344.61743164 52.31665039 C343.97153076 51.99688232 343.32562988 51.67711426 342.66015625 51.34765625 C341.91636719 50.98800781 341.17257812 50.62835938 340.40625 50.2578125 C339.6328125 49.86335938 338.859375 49.46890625 338.0625 49.0625 C336.82306641 48.45341797 336.82306641 48.45341797 335.55859375 47.83203125 C329.44654486 44.80404373 323.42058206 41.61256671 317.41625977 38.37719727 C311.41632627 35.16242496 305.29189545 32.26006467 299.11889648 29.39477539 C292.75423083 26.41839867 286.55887864 23.17722869 280.4296875 19.7421875 C273.93002523 16.17950425 270.47102039 16.965541 264.15185547 20.1652832 Z " fill="#FEFEFE" transform="translate(0,0)"/>
<path d="M0 0 C0.59040573 0.32904327 1.18081146 0.65808655 1.78910828 0.99710083 C2.48416977 1.37512848 3.17923126 1.75315613 3.89535522 2.14263916 C4.65137527 2.56528046 5.40739532 2.98792175 6.18632507 3.42337036 C7.89526623 4.35030973 9.60581805 5.27428367 11.31767273 6.1958313 C12.24855713 6.69771973 13.17944153 7.19960815 14.13853455 7.71670532 C19.60369755 10.61517945 25.14281849 13.36581897 30.67851257 16.12649536 C31.87906944 16.72611399 33.07960026 17.32578477 34.28010559 17.92550659 C37.34157619 19.45410343 40.40417174 20.98043354 43.46702576 22.5062561 C46.56234255 24.04877413 49.65651705 25.59357989 52.7507782 27.13821411 C57.32657076 29.42218058 61.90301688 31.70483148 66.48002625 33.98635864 C96.04476936 48.73348372 125.58515823 63.53099007 155.13554382 78.30618286 C154.80554382 131.43618286 154.47554382 184.56618286 154.13554382 239.30618286 C146.54554382 242.93618286 138.95554382 246.56618286 131.13554382 250.30618286 C126.48236505 252.597545 121.83619675 254.89570346 117.20195007 257.22415161 C116.02946213 257.81110306 114.85697418 258.3980545 113.6489563 259.00279236 C110.60819742 260.52502874 107.56864461 262.04965634 104.52940369 263.57492065 C101.46201181 265.11377917 98.39345844 266.65031795 95.32499695 268.18704224 C90.62097018 270.54315277 85.91756821 272.90050617 81.21464539 275.25881958 C76.59243501 277.57642824 71.96849948 279.89052997 67.34257507 282.20071411 C61.7035585 285.01705645 56.07047209 287.84514842 50.43849468 290.67553425 C45.11287126 293.35178624 39.78577311 296.02508975 34.45788288 298.69682598 C30.984967 300.43855683 27.51284472 302.18183733 24.0422821 303.92825317 C20.64099285 305.63972417 17.23779054 307.34733231 13.83320236 309.05223083 C12.54466222 309.69834686 11.25682637 310.34586945 9.96971512 310.99482727 C8.1871641 311.89331528 6.40189927 312.78641321 4.61650085 313.67922974 C3.6033078 314.18804687 2.59011475 314.69686401 1.54621887 315.22109985 C-0.86445618 316.30618286 -0.86445618 316.30618286 -2.86445618 316.30618286 C-2.86445618 316.96618286 -2.86445618 317.62618286 -2.86445618 318.30618286 C-7.4354913 316.90070385 -11.64414927 315.05428906 -15.90107727 312.90139771 C-16.57850983 312.56282745 -17.25594238 312.2242572 -17.9539032 311.87542725 C-20.18381853 310.75977565 -22.4108454 309.63848268 -24.63789368 308.51712036 C-26.20506967 307.73166311 -27.77242514 306.94656387 -29.33995056 306.1618042 C-33.46851035 304.09371232 -37.59465146 302.02083966 -41.72029114 299.94692993 C-45.8645877 297.8646403 -50.01107878 295.78673115 -54.15742493 293.70852661 C-60.28413773 290.63723031 -66.40958384 287.56342779 -72.53388977 284.48733521 C-78.68488542 281.39809639 -84.83962746 278.31643136 -90.99676037 275.23944473 C-96.04626814 272.71587462 -101.09356311 270.18791801 -106.13992977 267.65807343 C-111.48283741 264.97958228 -116.82667639 262.30295418 -122.17088604 259.62706184 C-125.74008414 257.83983089 -129.3088927 256.05183011 -132.87690735 254.26223755 C-136.37632789 252.50709263 -139.87672404 250.7539079 -143.3778019 249.00207138 C-144.69979198 248.34015714 -146.0214316 247.67754244 -147.34270287 247.01419449 C-149.18064834 246.09158656 -151.01983507 245.17149905 -152.85932922 244.25198364 C-153.90139023 243.72984283 -154.94345123 243.20770203 -156.01708984 242.66973877 C-158.58389284 241.44053993 -161.22206185 240.36314059 -163.86445618 239.30618286 C-163.86445618 186.17618286 -163.86445618 133.04618286 -163.86445618 78.30618286 C-152.90186094 72.53639589 -141.96907281 66.78413102 -130.88398743 61.26712036 C-129.6490087 60.6505709 -128.41412252 60.03383602 -127.17932129 59.41693115 C-123.98906017 57.82366915 -120.79760884 56.23280709 -117.60585022 54.64254761 C-114.3898878 53.03970534 -111.17506696 51.43457688 -107.9601593 49.82962036 C-103.20858451 47.45776479 -98.45636005 45.08721881 -93.7035675 42.71780396 C-91.42378929 41.58074617 -89.14408856 40.44353301 -86.86445618 39.30618286 C-85.9245795 38.83732792 -85.9245795 38.83732792 -84.96571541 38.35900116 C-76.4386522 34.10421294 -67.92385934 29.82611946 -59.42214966 25.52090454 C-54.54361205 23.05087881 -49.6599098 20.59111921 -44.77572346 18.13228607 C-41.08332475 16.27292226 -37.39294421 14.40974444 -33.70649719 12.53860474 C-30.0938586 10.70514251 -26.47643255 8.88147215 -22.85547447 7.0644989 C-21.48739257 6.37585568 -20.12106913 5.68370699 -18.75660133 4.9879303 C-16.86000865 4.02149864 -14.95753407 3.0677482 -13.05317688 2.11672974 C-11.4367907 1.30020935 -11.4367907 1.30020935 -9.78775024 0.4671936 C-6.20009377 -0.95767424 -3.64943317 -1.35805781 0 0 Z " fill="#FEFEFE" transform="translate(355.8644561767578,129.69381713867188)"/>
</svg>
